# This file uses centimeters as units for non-parametric coordinates.

v 46.589500 42.590900 -66.704597
v 46.074200 41.978901 -65.960602
v 46.232101 42.059601 -67.589798
v 47.563000 42.100300 -66.634499
v 46.141499 40.889400 -66.008003
v 46.299400 40.970200 -67.637299
v 47.630402 41.010799 -66.681999
v 46.724201 40.411999 -66.799599
vt 0.166670 0.000000
vt 0.333330 0.333330
vt 0.000000 0.333330
vt 0.500000 0.000000
vt 0.666670 0.333330
vt 0.833330 0.000000
vt 1.000000 0.333330
vt 0.000000 0.666670
vt 0.333330 0.666670
vt 0.166670 1.000000
vt 0.666670 0.666670
vt 0.500000 1.000000
vt 1.000000 0.666670
vt 0.833330 1.000000
vn -0.791251 0.609721 -0.046490
vn -0.980777 0.174969 -0.086390
vn -0.952359 0.294920 -0.077690
vn 0.398220 0.706620 -0.584900
vn 0.550231 0.299761 -0.779352
vn 0.522100 0.415070 -0.745070
vn 0.272030 0.642181 0.716661
vn 0.387852 0.216751 0.895874
vn 0.365699 0.335149 0.868297
vn -0.952305 -0.285971 -0.106471
vn -0.909325 -0.401812 -0.108051
vn -0.710620 -0.695940 -0.103380
vn 0.578719 -0.161090 -0.799459
vn 0.565161 -0.281491 -0.775472
vn 0.478971 -0.598791 -0.641901
vn 0.416351 -0.244180 0.875801
vn 0.408799 -0.361559 0.837949
vn 0.352778 -0.663467 0.659817
vn -0.980777 0.174969 -0.086390
vn -0.909325 -0.401812 -0.108051
vn -0.952305 -0.285971 -0.106471
vn -0.980777 0.174969 -0.086390
vn -0.952305 -0.285971 -0.106471
vn -0.952359 0.294920 -0.077690
vn 0.550231 0.299761 -0.779352
vn 0.565161 -0.281491 -0.775472
vn 0.578719 -0.161090 -0.799459
vn 0.550231 0.299761 -0.779352
vn 0.578719 -0.161090 -0.799459
vn 0.522100 0.415070 -0.745070
vn 0.387852 0.216751 0.895874
vn 0.408799 -0.361559 0.837949
vn 0.416351 -0.244180 0.875801
vn 0.387852 0.216751 0.895874
vn 0.416351 -0.244180 0.875801
vn 0.365699 0.335149 0.868297
s off
f 1/1/1 3/2/2 2/3/3
f 1/4/4 4/5/5 3/2/6
f 1/6/7 2/7/8 4/5/9
f 5/8/10 6/9/11 8/10/12
f 6/9/13 7/11/14 8/12/15
f 7/11/16 5/13/17 8/14/18
f 3/2/19 6/9/20 5/8/21
f 3/2/22 5/8/23 2/3/24
f 4/5/25 7/11/26 6/9/27
f 4/5/28 6/9/29 3/2/30
f 2/7/31 5/13/32 7/11/33
f 2/7/34 7/11/35 4/5/36
